# xmcd CD database file
#
# Track frame offsets:
#	150
#	17390
#	38898
#	60728
#	80978
#	98845
#	124555
#	147448
#	164301
#	186131
#
# Disc length: 2775 seconds
#
# Revision: 0
# Processed by: cddbd v1.5.1PL0 Copyright (c) Steve Scherf et al.
# Submitted via: CDex 1.51
#
DISCID=810ad50a
DTITLE=face to ace - FIESTA
DYEAR=2005
DGENRE=Pop
TTITLE0=KALEIDO-PARADE
TTITLE1=so sad-so what?
TTITLE2=fiesta
TTITLE3=ON THE WING
TTITLE4=流星雨
TTITLE5=SPUNK ME UP
TTITLE6=ESCAPER
TTITLE7=INTO THE BLUE
TTITLE8=SLOW DANCE
TTITLE9=TWO OF US
EXTD=YEAR: 2005
EXTT0=
EXTT1=
EXTT2=
EXTT3=
EXTT4=
EXTT5=
EXTT6=
EXTT7=
EXTT8=
EXTT9=
PLAYORDER=
